# xmcd
#
# Track frame offsets:
#	150
#	16006
#	28807
#	40029
#	53265
#	65560
#	82643
#	89936
#	105112
#	119102
#	131852
#	139861
#	155597
#	168093
#	179371
#	195437
#	207758
#
# Disc length: 3006 seconds
#
# Revision: 1
# Processed by: cddbd v1.5PL3 Copyright (c) Steve Scherf et al.
# Submitted via: EasyCDDAExtractor 6.0.0.1
#
DISCID=da0bbc11
DTITLE=Vojta Zicha - II. Miza Vojty Zichy 2001
DYEAR=2001
DGENRE=Country
TTITLE0=Statek u Waterloo
TTITLE1=Co zbejva
TTITLE2=Prej chces chlapa
TTITLE3=Neco je ve vzduchu
TTITLE4=Tri straznici
TTITLE5=Ze se jednou vratis
TTITLE6=Ratlikova zpoved
TTITLE7=Parizska
TTITLE8=Pupenec
TTITLE9=Citovy zivot posluchace radia
TTITLE10=Cindome pindrale
TTITLE11=Variace na tema "Zari"
TTITLE12=Jarni reagae
TTITLE13=Ja jsem Pepa
TTITLE14=Tvuj hlas
TTITLE15=Prezil jsem
TTITLE16=Jedenkrat
EXTD=
EXTT0=
EXTT1=
EXTT2=
EXTT3=
EXTT4=
EXTT5=
EXTT6=
EXTT7=
EXTT8=
EXTT9=
EXTT10=
EXTT11=
EXTT12=
EXTT13=
EXTT14=
EXTT15=
EXTT16=
PLAYORDER=
